<?xml version="1.0" encoding="utf-8"?>
<!-- Generator: Adobe Illustrator 15.0.0, SVG Export Plug-In  -->
<!DOCTYPE svg PUBLIC "-//W3C//DTD SVG 1.1//EN" "http://www.w3.org/Graphics/SVG/1.1/DTD/svg11.dtd" [
	<!ENTITY ns_flows "http://ns.adobe.com/Flows/1.0/">
]>
<svg version="1.1"
	 xmlns="http://www.w3.org/2000/svg" xmlns:xlink="http://www.w3.org/1999/xlink" xmlns:a="http://ns.adobe.com/AdobeSVGViewerExtensions/3.0/"
	 x="0px" y="0px" width="65px" height="65px" viewBox="0.8 0.4 65 65" enable-background="new 0.8 0.4 65 65" xml:space="preserve">
<defs>
</defs>
<path fill="#FFFFFF" d="M55.9,49.4c-1.4,0-2.5,1.1-2.5,2.5c0,1.4,1.1,2.5,2.5,2.5s2.5-1.1,2.5-2.5C58.4,50.5,57.3,49.4,55.9,49.4z
	 M40.8,7.8c-1.4,0-2.5,1.1-2.5,2.5s1.1,2.5,2.5,2.5s2.5-1.1,2.5-2.5S42.2,7.8,40.8,7.8z M7.6,20.5c-1.4,0-2.5,1.1-2.5,2.5
	c0,1.4,1.1,2.5,2.5,2.5c1.4,0,2.5-1.1,2.5-2.5C10.1,21.6,9,20.5,7.6,20.5z"/>
<path fill="#FFFFFF" d="M40.1,26.5c-5.3-16.1-10.3-16-15.1,0.2C7.2,26.5,5.7,31,20.6,40.3c-5.7,16-1.6,18.7,12.3,8.2
	C47.2,58.6,51.2,55.8,45,40C59.5,30.2,57.9,25.7,40.1,26.5z"/>
<path fill="#FFDE00" d="M42.7,27.9c-4.8-14.6-9.4-14.5-13.7,0.2c-16.2-0.2-17.5,3.9-4,12.4c-5.2,14.5-1.4,17,11.2,7.4
	c13,9.1,16.6,6.6,10.9-7.8C60.3,31.3,58.9,27.2,42.7,27.9z"/>
<path fill="#FF6600" d="M57.9,49.4c-1.4,0-2.5,1.1-2.5,2.5c0,1.4,1.1,2.5,2.5,2.5c1.4,0,2.5-1.1,2.5-2.5
	C60.4,50.5,59.3,49.4,57.9,49.4z M42.8,7.8c-1.4,0-2.5,1.1-2.5,2.5s1.1,2.5,2.5,2.5s2.5-1.1,2.5-2.5S44.2,7.8,42.8,7.8z M9.6,20.5
	c-1.4,0-2.5,1.1-2.5,2.5c0,1.4,1.1,2.5,2.5,2.5c1.4,0,2.5-1.1,2.5-2.5C12.1,21.6,11,20.5,9.6,20.5z"/>
<path fill="none" stroke="#222222" stroke-width="2" stroke-linecap="round" stroke-linejoin="round" stroke-miterlimit="10" d="
	M23.9,27.1c0.5,0,1.1,0,1.6,0c4.6-15.8,9.4-15.9,14.5-0.2c17.1-0.7,18.7,3.6,4.7,13.1c6,15.4,2.2,18.2-11.6,8.3
	c-13.4,10.2-17.4,7.6-11.9-8c-8.7-5.5-11.6-9.3-8.6-11.4 M16.9,27.6c0.7-0.1,1.4-0.2,2.3-0.3"/>
<path fill="none" stroke="#222222" stroke-width="2" stroke-linecap="round" stroke-linejoin="round" stroke-miterlimit="10" d="
	M55.9,49.4c-1.4,0-2.5,1.1-2.5,2.5c0,1.4,1.1,2.5,2.5,2.5s2.5-1.1,2.5-2.5C58.4,50.5,57.3,49.4,55.9,49.4z M40.8,7.8
	c-1.4,0-2.5,1.1-2.5,2.5s1.1,2.5,2.5,2.5s2.5-1.1,2.5-2.5S42.2,7.8,40.8,7.8z M7.6,20.5c-1.4,0-2.5,1.1-2.5,2.5
	c0,1.4,1.1,2.5,2.5,2.5c1.4,0,2.5-1.1,2.5-2.5C10.1,21.6,9,20.5,7.6,20.5z"/>
<line fill="none" stroke="#222222" stroke-width="2" stroke-linecap="round" stroke-linejoin="round" stroke-miterlimit="10" x1="33" y1="54.4" x2="33" y2="62.4"/>
<line fill="none" stroke="#222222" stroke-width="2" stroke-linecap="round" stroke-linejoin="round" stroke-miterlimit="10" x1="52.5" y1="41.5" x2="62.3" y2="41.5"/>
<line fill="none" stroke="#222222" stroke-width="2" stroke-linecap="round" stroke-linejoin="round" stroke-miterlimit="10" x1="14.5" y1="42.5" x2="3.5" y2="42.5"/>
<line fill="none" stroke="#222222" stroke-width="2" stroke-linecap="round" stroke-linejoin="round" stroke-miterlimit="10" x1="24.5" y1="15.5" x2="19.5" y2="7.5"/>
<line fill="none" stroke="#222222" stroke-width="2" stroke-linecap="round" stroke-linejoin="round" stroke-miterlimit="10" x1="51" y1="13.6" x2="54.1" y2="10.5"/>
<line fill="none" stroke="#222222" stroke-width="2" stroke-linecap="round" stroke-linejoin="round" stroke-miterlimit="10" x1="44.2" y1="20.3" x2="47.5" y2="17"/>
<line fill="none" stroke="#222222" stroke-width="2" stroke-linecap="round" stroke-linejoin="round" stroke-miterlimit="10" x1="11.8" y1="12.9" x2="7.6" y2="8.8"/>
<line fill="none" stroke="#222222" stroke-width="2" stroke-linecap="round" stroke-linejoin="round" stroke-miterlimit="10" x1="19.5" y1="20.3" x2="15.3" y2="16.2"/>
<line fill="none" stroke="#222222" stroke-width="2" stroke-linecap="round" stroke-linejoin="round" stroke-miterlimit="10" x1="7.5" y1="52.5" x2="14" y2="47.2"/>
<rect id="_x3C_切片_x3E__58_" fill="none" width="64" height="64"/>
</svg>
