<?xml version="1.0" encoding="utf-8"?>
<!-- Generator: Adobe Illustrator 15.0.0, SVG Export Plug-In  -->
<!DOCTYPE svg PUBLIC "-//W3C//DTD SVG 1.1//EN" "http://www.w3.org/Graphics/SVG/1.1/DTD/svg11.dtd" [
	<!ENTITY ns_flows "http://ns.adobe.com/Flows/1.0/">
]>
<svg version="1.1"
	 xmlns="http://www.w3.org/2000/svg" xmlns:xlink="http://www.w3.org/1999/xlink" xmlns:a="http://ns.adobe.com/AdobeSVGViewerExtensions/3.0/"
	 x="0px" y="0px" width="65px" height="65px" viewBox="0.8 0.5 65 65" enable-background="new 0.8 0.5 65 65" xml:space="preserve">
<defs>
</defs>
<path fill="#FFFFFF" d="M53.2,33.8c1.9-2.5,3-5.4,3-8.6c0-8.6-8.1-15.5-18-15.5c-9.9,0-18,7-18,15.5c0,8.6,8.1,15.5,18,15.5
	c3,0,5.8-0.6,8.3-1.8l-0.1,0.1c6,4.6,13.1,0,13.1,0C55.2,38,53.7,35.3,53.2,33.8z"/>
<path fill="none" stroke="#222222" stroke-width="2" stroke-linecap="round" stroke-linejoin="round" stroke-miterlimit="10" d="
	M43.6,10.3c1.1,0.3,2.2,0.8,3.2,1.3 M51.9,15.6c2.1,2.5,3.4,5.7,3.4,9.1c0,3.1-1.1,6-2.9,8.4c0.5,1.5,1.9,4.1,6,5.2
	c0,0-6.8,4.5-12.6,0l0.1-0.1c-2.4,1.1-5.1,1.7-8,1.7c-4.3,0-8.2-1.4-11.3-3.7 M22.6,31.8c-1.3-2.1-2-4.5-2-7.1
	c0-7.9,6.9-14.4,15.7-15.2"/>
<path d="M43,22.7c-1.4,0-2.5,1.1-2.5,2.5s1.1,2.5,2.5,2.5c1.4,0,2.5-1.1,2.5-2.5S44.4,22.7,43,22.7z M33,22.7
	c-1.4,0-2.5,1.1-2.5,2.5s1.1,2.5,2.5,2.5c1.4,0,2.5-1.1,2.5-2.5S34.4,22.7,33,22.7z"/>
<path fill="#FFFFFF" d="M36.1,50.1c1.8-2.4,2.9-5.3,2.9-8.4c0-8.4-7.7-15.2-17.3-15.2c-9.6,0-17.3,6.8-17.3,15.2
	c0,8.4,7.7,15.2,17.3,15.2c2.9,0,5.6-0.6,8-1.7l-0.1,0.1c5.8,4.5,12.6,0,12.6,0C38,54.2,36.6,51.6,36.1,50.1z"/>
<path d="M17,39.5c-1.4,0-2.5,1.1-2.5,2.5c0,1.4,1.1,2.5,2.5,2.5c1.4,0,2.5-1.1,2.5-2.5C19.5,40.6,18.4,39.5,17,39.5z M27,39.5
	c-1.4,0-2.5,1.1-2.5,2.5c0,1.4,1.1,2.5,2.5,2.5c1.4,0,2.5-1.1,2.5-2.5C29.5,40.6,28.4,39.5,27,39.5z"/>
<path fill="none" stroke="#222222" stroke-width="2" stroke-linecap="round" stroke-linejoin="round" stroke-miterlimit="10" d="
	M27.6,27.3c1.1,0.3,2.2,0.8,3.2,1.3 M35.9,32.6c2.1,2.5,3.4,5.7,3.4,9.1c0,3.1-1.1,6-2.9,8.4c0.5,1.5,1.9,4.1,6,5.2
	c0,0-6.8,4.5-12.6,0l0.1-0.1c-2.4,1.1-5.1,1.7-8,1.7c-4.3,0-8.2-1.4-11.3-3.7 M6.6,48.8c-1.3-2.1-2-4.5-2-7.1
	c0-7.9,6.9-14.4,15.7-15.2"/>
<rect id="_x3C_切片_x3E__58_" fill="none" width="64" height="64"/>
</svg>
