<?xml version="1.0" encoding="utf-8"?>
<!-- Generator: Adobe Illustrator 15.0.0, SVG Export Plug-In  -->
<!DOCTYPE svg PUBLIC "-//W3C//DTD SVG 1.1//EN" "http://www.w3.org/Graphics/SVG/1.1/DTD/svg11.dtd" [
	<!ENTITY ns_flows "http://ns.adobe.com/Flows/1.0/">
]>
<svg version="1.1"
	 xmlns="http://www.w3.org/2000/svg" xmlns:xlink="http://www.w3.org/1999/xlink" xmlns:a="http://ns.adobe.com/AdobeSVGViewerExtensions/3.0/"
	 x="0px" y="0px" width="65px" height="65px" viewBox="0.8 0.4 65 65" enable-background="new 0.8 0.4 65 65" xml:space="preserve">
<defs>
</defs>
<path fill="#FFFFFF" d="M31.5,24.7c0,0-2.2-17.4-24.9-11.4C6.7,13.3,3.9,34.7,31.5,24.7z"/>
<path fill="#FFFFFF" d="M35.6,24.6c0,0,0.3-14.5,20.9-8.4C56.5,16.2,58.7,32.1,35.6,24.6z"/>
<path fill="#FFFFFF" d="M31.7,33.8c-14.5,0-26.3,11.9-26.3,26.7H58C58,45.8,46.2,33.8,31.7,33.8z"/>
<path fill="#FFDE00" d="M34.2,33.8c-14.5,0-26.3,11.9-26.3,26.7h52.6C60.5,45.8,48.7,33.8,34.2,33.8z"/>
<path fill="#FFFFFF" d="M34.6,42.8c-10,0-18.1,5.7-18.1,16h35C51.5,48.5,42.1,42.8,34.6,42.8z"/>
<path fill="#7DCC5E" d="M58,16.2c-20.6-6.1-20.9,8.4-20.9,8.4C60.2,32.1,58,16.2,58,16.2z M8.4,13.1c0,0-2.8,21.4,24.9,11.4
	C33.2,24.5,31.1,7,8.4,13.1z"/>
<path fill="none" stroke="#222222" stroke-width="2" stroke-linecap="round" stroke-linejoin="round" stroke-miterlimit="10" d="
	M47.6,59.5c0-4.9-2-9.3-5.3-12.5 M38.1,44c-2.2-1.1-4.8-1.7-7.4-1.7c-9.4,0-16.9,7.7-16.9,17.2"/>
<path fill="none" stroke="#222222" stroke-width="2" stroke-linecap="round" stroke-linejoin="round" stroke-miterlimit="10" d="
	M20,36.1c-1.8,0.9-3.4,1.9-5,3.1 M11.6,42.7c-3.8,4.6-6.1,10.5-6.1,17H56c0-14.4-11.3-26-25.3-26c-1.6,0-3.2,0.2-4.8,0.5"/>
<path fill="#222222" d="M15.5,12C30,12,31.5,24.7,31.5,24.7c-5.2,1.9-9.4,2.7-12.7,2.7c-14,0-12.2-14.1-12.2-14.1
	C10,12.4,12.9,12,15.5,12 M15.5,10c-2.8,0-6,0.5-9.3,1.3l-1.3,0.3L4.7,13c0,0.3-0.9,7.2,3.3,12c2.5,2.8,6.2,4.3,10.9,4.3
	c3.8,0,8.2-0.9,13.3-2.8l1.5-0.5l-0.2-1.6C33.5,24.3,31.6,10,15.5,10L15.5,10z"/>
<path fill="#222222" d="M47.5,14.7c2.5,0,5.4,0.4,9,1.5c0,0,1.5,10.4-10.2,10.4c-2.8,0-6.2-0.6-10.6-2
	C35.6,24.6,35.8,14.7,47.5,14.7 M47.5,12.7L47.5,12.7c-10.8,0-13.8,7.8-13.9,11.9l0,1.5l1.4,0.5c4.3,1.4,8.1,2.1,11.3,2.1
	c4.3,0,7.5-1.3,9.7-3.7c3.2-3.7,2.6-8.8,2.6-9l-0.2-1.3L57,14.2C53.5,13.2,50.3,12.7,47.5,12.7L47.5,12.7z"/>
<path fill="none" stroke="#222222" stroke-width="2" stroke-linecap="round" stroke-linejoin="round" stroke-miterlimit="10" d="
	M6.7,13.3c0,2.6,8.5,9.8,24.9,11.4"/>
<path fill="none" stroke="#222222" stroke-width="2" stroke-linecap="round" stroke-linejoin="round" stroke-miterlimit="10" d="
	M35.6,24.6c2.5-3.9,10.5-9.1,20.9-8.4"/>
<path fill="none" stroke="#222222" stroke-width="2" stroke-miterlimit="10" d="M34.2,24.6c0,4.5-1.6,9.3-3.5,9.3"/>
<rect id="_x3C_切片_x3E__58_" fill="none" width="64" height="64"/>
</svg>
