<?xml version="1.0" encoding="utf-8"?>
<!-- Generator: Adobe Illustrator 15.0.0, SVG Export Plug-In  -->
<!DOCTYPE svg PUBLIC "-//W3C//DTD SVG 1.1//EN" "http://www.w3.org/Graphics/SVG/1.1/DTD/svg11.dtd" [
	<!ENTITY ns_flows "http://ns.adobe.com/Flows/1.0/">
]>
<svg version="1.1"
	 xmlns="http://www.w3.org/2000/svg" xmlns:xlink="http://www.w3.org/1999/xlink" xmlns:a="http://ns.adobe.com/AdobeSVGViewerExtensions/3.0/"
	 x="0px" y="0px" width="65px" height="65px" viewBox="0.9 0.5 65 65" enable-background="new 0.9 0.5 65 65" xml:space="preserve">
<defs>
</defs>
<circle fill="#FFFFFF" cx="24.8" cy="34.1" r="22"/>
<path fill="none" stroke="#222222" stroke-width="2" stroke-linecap="round" stroke-linejoin="round" stroke-miterlimit="10" d="
	M13.2,17.2c1.9-1.6,3.6-2.5,4.6-2.9 M24,13.1c5.6-0.2,11.3,1.8,15.6,6.1c8.2,8.2,8.2,21.5,0,29.7c-4,4-9.1,6-14.4,6.1 M19.8,54.5
	c-3.6-0.9-7.1-2.7-9.9-5.6C2,41,1.7,28.3,9.2,20"/>
<ellipse fill="#FFFFFF" cx="27.8" cy="34" rx="9.9" ry="9.8"/>
<path fill="#222222" d="M25.3,24.3c5.5,0,9.9,4.4,9.9,9.8c0,5.4-4.4,9.8-9.9,9.8c-5.5,0-9.9-4.4-9.9-9.8
	C15.4,28.6,19.8,24.3,25.3,24.3 M25.3,22.3c-6.5,0-11.9,5.3-11.9,11.8s5.3,11.8,11.9,11.8S37.1,40.5,37.1,34S31.8,22.3,25.3,22.3
	L25.3,22.3z"/>
<ellipse fill="#FFFFFF" cx="44.8" cy="39.4" rx="15.1" ry="14.7"/>
<ellipse fill="#FFFFFF" cx="47.6" cy="39.2" rx="5.9" ry="5.9"/>
<path fill="#222222" d="M45,33.4c3.3,0,5.9,2.6,5.9,5.9s-2.7,5.9-5.9,5.9s-5.9-2.6-5.9-5.9S41.7,33.4,45,33.4 M45,31.4
	c-4.4,0-7.9,3.5-7.9,7.9s3.6,7.9,7.9,7.9s7.9-3.5,7.9-7.9S49.3,31.4,45,31.4L45,31.4z"/>
<path fill="none" stroke="#222222" stroke-width="2" stroke-linecap="round" stroke-linejoin="round" stroke-miterlimit="10" d="
	M36.7,27.1c1.3-1.2,2.6-1.8,3.3-2.1 M44.4,24.2c4-0.1,8.1,1.3,11.2,4.4c5.9,5.8,5.9,15.3,0,21.2c-2.9,2.8-6.6,4.3-10.3,4.4
	 M41.4,53.7c-2.6-0.6-5.1-1.9-7.1-4c-5.7-5.7-5.9-14.8-0.5-20.6"/>
<rect id="_x3C_切片_x3E__58_" fill="none" width="64" height="64"/>
</svg>
