<?xml version="1.0" encoding="utf-8"?>
<!-- Generator: Adobe Illustrator 15.0.0, SVG Export Plug-In  -->
<!DOCTYPE svg PUBLIC "-//W3C//DTD SVG 1.1//EN" "http://www.w3.org/Graphics/SVG/1.1/DTD/svg11.dtd" [
	<!ENTITY ns_flows "http://ns.adobe.com/Flows/1.0/">
]>
<svg version="1.1"
	 xmlns="http://www.w3.org/2000/svg" xmlns:xlink="http://www.w3.org/1999/xlink" xmlns:a="http://ns.adobe.com/AdobeSVGViewerExtensions/3.0/"
	 x="0px" y="0px" width="65px" height="65px" viewBox="0.8 0.5 65 65" enable-background="new 0.8 0.5 65 65" xml:space="preserve">
<defs>
</defs>
<path fill="#FFFFFF" d="M31.1,7.8c14.8,0,26.9,11.9,26.9,26.6S45.9,61,31.1,61C16.2,61,4.2,49.1,4.2,34.4S16.2,7.8,31.1,7.8z"/>
<path fill="#FFFFFF" d="M41.8,34c-2.2-4.3-1.6-9.1-1.6-9.1c-4.8,5-4.8,9.9-4.8,9.9c0.2-10-8.1-14.5-8.1-14.5c4.7,7.3-1.6,16-1.6,16
	c1.8-5.8-4.1-8.4-4.1-8.4c1.7,3.7-0.8,6.1-0.8,6.1c-3.7,11.6,5.6,14.1,11.2,14.5C37.1,48.8,47.5,44.9,41.8,34z"/>
<path fill="none" stroke="#222222" stroke-width="2" stroke-linecap="round" stroke-linejoin="round" stroke-miterlimit="10" d="
	M41.8,34c-2.2-4.3-1.6-9.1-1.6-9.1c-4.8,5-4.8,9.9-4.8,9.9c0.2-10-8.1-14.5-8.1-14.5c4.7,7.3-1.6,16-1.6,16c1.8-5.8-4.1-8.4-4.1-8.4
	c1.3,1.7-0.8,6.1-0.8,6.1c-3.7,11.6,5.3,14.5,11.2,14.5C37.7,48.4,47.5,44.9,41.8,34z"/>
<path fill="none" stroke="#222222" stroke-width="2" stroke-linecap="round" stroke-linejoin="round" stroke-miterlimit="10" d="
	M31.2,8.8C16.9,8.8,5.3,20.2,5.3,34.4C5.3,41,7.8,47,12,51.5"/>
<path fill="none" stroke="#222222" stroke-width="2" stroke-linecap="round" stroke-linejoin="round" stroke-miterlimit="10" d="
	M33.1,8.8c-0.6,0-1.3-0.1-1.9-0.1"/>
<path fill="none" stroke="#222222" stroke-width="2" stroke-linecap="round" stroke-linejoin="round" stroke-miterlimit="10" d="
	M45.2,12.9c-1.6-1-3.4-1.9-5.2-2.6"/>
<path fill="none" stroke="#222222" stroke-width="2" stroke-linecap="round" stroke-linejoin="round" stroke-miterlimit="10" d="
	M16.2,55.2c4.2,3,9.4,4.7,15,4.7c14.3,0,25.9-11.5,25.9-25.6c0-6.4-2.3-12.2-6.2-16.7"/>
<rect id="_x3C_切片_x3E__58_" fill="none" width="64" height="64"/>
</svg>
